<svg width="168" height="50" viewBox="0 0 168 50" fill="none" xmlns="http://www.w3.org/2000/svg">
<rect x="0.5" y="0.5" width="167" height="49" rx="5.5" fill="white" stroke="black"/>
<path d="M54.7017 9.36747C55.19 9.33252 55.6801 9.4061 56.1365 9.58289C56.5929 9.75968 57.0043 10.0353 57.341 10.3898C57.6777 10.7443 57.9313 11.169 58.0834 11.6331C58.2356 12.0971 58.2826 12.5891 58.221 13.0735C58.221 15.4563 56.9296 16.826 54.7017 16.826H52V9.36747H54.7017ZM53.1617 15.7712H54.5719C54.9209 15.792 55.2701 15.735 55.5942 15.6042C55.9183 15.4734 56.209 15.2722 56.4453 15.0153C56.6816 14.7583 56.8574 14.4521 56.9601 14.1188C57.0627 13.7855 57.0895 13.4336 57.0385 13.0887C57.0858 12.7452 57.0563 12.3955 56.9521 12.0646C56.8479 11.7338 56.6716 11.4301 56.4359 11.1751C56.2001 10.9202 55.9108 10.7205 55.5885 10.5902C55.2662 10.4599 54.9191 10.4023 54.5719 10.4215H53.1617V15.7712Z" fill="black"/>
<path d="M59.5333 14.0092C59.4979 13.6393 59.5403 13.266 59.6579 12.9135C59.7756 12.5609 59.9658 12.2367 60.2164 11.9617C60.467 11.6867 60.7725 11.467 61.1133 11.3167C61.4541 11.1663 61.8226 11.0887 62.1952 11.0887C62.5678 11.0887 62.9364 11.1663 63.2771 11.3167C63.6179 11.467 63.9234 11.6867 64.174 11.9617C64.4247 12.2367 64.6149 12.5609 64.7325 12.9135C64.8502 13.266 64.8926 13.6393 64.8571 14.0092C64.8933 14.3794 64.8513 14.7532 64.734 15.1063C64.6167 15.4595 64.4266 15.7842 64.1759 16.0598C63.9252 16.3353 63.6195 16.5554 63.2784 16.7061C62.9372 16.8568 62.5683 16.9346 62.1952 16.9346C61.8221 16.9346 61.4532 16.8568 61.1121 16.7061C60.771 16.5554 60.4653 16.3353 60.2146 16.0598C59.9639 15.7842 59.7737 15.4595 59.6564 15.1063C59.5391 14.7532 59.4972 14.3794 59.5333 14.0092ZM63.7113 14.0092C63.7113 12.7891 63.1617 12.0756 62.1971 12.0756C61.2288 12.0756 60.6841 12.7891 60.6841 14.0092C60.6841 15.239 61.2288 15.947 62.1971 15.947C63.1617 15.947 63.7113 15.2341 63.7113 14.0092H63.7113Z" fill="black"/>
<path d="M71.9336 16.8259H70.778L69.6114 12.6804H69.5233L68.3616 16.8259H67.217L65.6611 11.1973H66.791L67.8021 15.4923H67.8854L69.0459 11.1973H70.1145L71.275 15.4923H71.3631L72.3694 11.1973H73.4833L71.9336 16.8259Z" fill="black"/>
<path d="M74.792 11.1973H75.8643V12.0914H75.9476C76.0888 11.7703 76.327 11.5011 76.6289 11.3213C76.9308 11.1415 77.2815 11.0602 77.632 11.0886C77.9066 11.068 78.1824 11.1093 78.4389 11.2094C78.6953 11.3096 78.9259 11.4659 79.1135 11.667C79.3012 11.868 79.441 12.1086 79.5228 12.3709C79.6045 12.6332 79.626 12.9104 79.5857 13.1821V16.8259H78.4717V13.4611C78.4717 12.5565 78.0776 12.1067 77.2537 12.1067C77.0673 12.098 76.8811 12.1297 76.7081 12.1995C76.535 12.2692 76.3791 12.3755 76.2511 12.511C76.1231 12.6465 76.026 12.808 75.9664 12.9844C75.9068 13.1608 75.8862 13.348 75.9059 13.5331V16.8259H74.792L74.792 11.1973Z" fill="black"/>
<path d="M81.3608 9H82.4748V16.8259H81.3608V9Z" fill="black"/>
<path d="M84.0233 14.0091C83.9878 13.6392 84.0303 13.266 84.148 12.9134C84.2656 12.5608 84.4559 12.2366 84.7065 11.9616C84.9572 11.6866 85.2627 11.4669 85.6035 11.3166C85.9443 11.1662 86.3128 11.0886 86.6855 11.0886C87.0581 11.0886 87.4267 11.1662 87.7675 11.3166C88.1083 11.4669 88.4138 11.6866 88.6644 11.9616C88.9151 12.2366 89.1053 12.5608 89.223 12.9134C89.3407 13.266 89.3831 13.6392 89.3477 14.0091C89.3838 14.3794 89.3418 14.7532 89.2245 15.1063C89.1071 15.4595 88.9169 15.7842 88.6662 16.0597C88.4155 16.3353 88.1098 16.5554 87.7686 16.7061C87.4275 16.8567 87.0586 16.9346 86.6855 16.9346C86.3124 16.9346 85.9434 16.8567 85.6023 16.7061C85.2612 16.5554 84.9554 16.3353 84.7047 16.0597C84.454 15.7842 84.2639 15.4595 84.1465 15.1063C84.0292 14.7532 83.9872 14.3794 84.0233 14.0091ZM88.2013 14.0091C88.2013 12.7891 87.6516 12.0756 86.687 12.0756C85.7187 12.0756 85.174 12.7891 85.174 14.0092C85.174 15.239 85.7188 15.947 86.687 15.947C87.6516 15.947 88.2013 15.2341 88.2013 14.0091H88.2013Z" fill="black"/>
<path d="M90.5205 15.2341C90.5205 14.2209 91.277 13.6368 92.6199 13.5538L94.1488 13.4659V12.9801C94.1488 12.3856 93.7547 12.0499 92.9932 12.0499C92.3714 12.0499 91.9405 12.2776 91.8169 12.6755H90.7384C90.8522 11.7087 91.7642 11.0886 93.0447 11.0886C94.4598 11.0886 95.2579 11.7911 95.2579 12.9801V16.8259H94.1856V16.0349H94.0974C93.9185 16.3187 93.6673 16.55 93.3694 16.7052C93.0716 16.8605 92.7377 16.9341 92.402 16.9187C92.165 16.9432 91.9255 16.918 91.699 16.8447C91.4724 16.7713 91.2637 16.6514 91.0865 16.4927C90.9092 16.334 90.7672 16.14 90.6698 15.9232C90.5723 15.7064 90.5214 15.4717 90.5205 15.2341ZM94.1488 14.7532V14.2826L92.7705 14.3705C91.9931 14.4223 91.6406 14.686 91.6406 15.1822C91.6406 15.6888 92.0813 15.9836 92.6873 15.9836C92.8648 16.0015 93.0442 15.9837 93.2146 15.9311C93.3851 15.8784 93.5433 15.7922 93.6796 15.6774C93.816 15.5626 93.9278 15.4216 94.0084 15.2628C94.089 15.104 94.1368 14.9307 94.1488 14.7532Z" fill="black"/>
<path d="M96.7217 14.0092C96.7217 12.2306 97.6386 11.1039 99.0647 11.1039C99.4174 11.0877 99.7675 11.1719 100.074 11.3468C100.381 11.5217 100.631 11.7799 100.796 12.0914H100.879V9H101.993V16.8259H100.925V15.9366H100.837C100.66 16.246 100.401 16.501 100.088 16.6741C99.7758 16.8472 99.4219 16.9318 99.0647 16.9187C97.6288 16.9187 96.7217 15.792 96.7217 14.0092ZM97.8724 14.0092C97.8724 15.203 98.4367 15.9214 99.3805 15.9214C100.319 15.9214 100.9 15.1927 100.9 14.0141C100.9 12.841 100.313 12.1018 99.3805 12.1018C98.4428 12.1018 97.8724 12.8251 97.8724 14.0092H97.8724Z" fill="black"/>
<path d="M106.602 14.0092C106.566 13.6393 106.609 13.266 106.726 12.9135C106.844 12.5609 107.034 12.2367 107.285 11.9617C107.535 11.6867 107.841 11.467 108.182 11.3167C108.522 11.1663 108.891 11.0887 109.264 11.0887C109.636 11.0887 110.005 11.1663 110.345 11.3167C110.686 11.467 110.992 11.6867 111.242 11.9617C111.493 12.2367 111.683 12.5609 111.801 12.9135C111.918 13.266 111.961 13.6393 111.925 14.0092C111.962 14.3794 111.92 14.7532 111.802 15.1063C111.685 15.4595 111.495 15.7842 111.244 16.0598C110.994 16.3353 110.688 16.5554 110.347 16.7061C110.006 16.8568 109.637 16.9346 109.264 16.9346C108.89 16.9346 108.522 16.8568 108.18 16.7061C107.839 16.5554 107.534 16.3353 107.283 16.0598C107.032 15.7842 106.842 15.4595 106.725 15.1063C106.607 14.7532 106.566 14.3794 106.602 14.0092ZM110.78 14.0092C110.78 12.7891 110.23 12.0756 109.265 12.0756C108.297 12.0756 107.752 12.7891 107.752 14.0092C107.752 15.239 108.297 15.947 109.265 15.947C110.23 15.947 110.78 15.2341 110.78 14.0092Z" fill="black"/>
<path d="M113.42 11.1973H114.493V12.0914H114.576C114.717 11.7703 114.955 11.5011 115.257 11.3213C115.559 11.1415 115.91 11.0602 116.26 11.0886C116.535 11.068 116.811 11.1093 117.067 11.2094C117.323 11.3096 117.554 11.4659 117.742 11.667C117.929 11.868 118.069 12.1086 118.151 12.3709C118.233 12.6332 118.254 12.9104 118.214 13.1821V16.8259H117.1V13.4611C117.1 12.5565 116.706 12.1067 115.882 12.1067C115.695 12.098 115.509 12.1297 115.336 12.1995C115.163 12.2692 115.007 12.3755 114.879 12.511C114.751 12.6465 114.654 12.808 114.595 12.9844C114.535 13.1608 114.514 13.348 114.534 13.5331V16.8259H113.42V11.1973Z" fill="black"/>
<path d="M124.508 9.7959V11.2229H125.731V12.1586H124.508V15.0529C124.508 15.6425 124.752 15.9006 125.306 15.9006C125.448 15.9002 125.59 15.8916 125.731 15.875V16.8003C125.531 16.836 125.328 16.855 125.125 16.857C123.886 16.857 123.393 16.4225 123.393 15.3373V12.1585H122.497V11.2228H123.393V9.7959H124.508Z" fill="black"/>
<path d="M127.253 9H128.357V12.1018H128.445C128.593 11.7777 128.838 11.5069 129.146 11.3265C129.454 11.1461 129.81 11.0647 130.166 11.0935C130.44 11.0787 130.713 11.1242 130.966 11.2267C131.22 11.3293 131.447 11.4864 131.633 11.6868C131.819 11.8872 131.958 12.126 132.04 12.3862C132.123 12.6464 132.147 12.9215 132.11 13.1919V16.8259H130.995V13.4659C130.995 12.5669 130.575 12.1116 129.788 12.1116C129.597 12.0959 129.404 12.1222 129.224 12.1885C129.044 12.2548 128.88 12.3596 128.745 12.4955C128.609 12.6314 128.505 12.7952 128.44 12.9754C128.375 13.1555 128.35 13.3477 128.367 13.5386V16.8259H127.253L127.253 9Z" fill="black"/>
<path d="M138.605 15.3062C138.454 15.8206 138.126 16.2656 137.679 16.5633C137.232 16.861 136.694 16.9924 136.16 16.9346C135.788 16.9444 135.418 16.8734 135.077 16.7264C134.735 16.5795 134.43 16.3603 134.181 16.0838C133.933 15.8074 133.749 15.4805 133.64 15.1257C133.531 14.7709 133.501 14.3968 133.552 14.0293C133.503 13.6607 133.533 13.2858 133.642 12.93C133.75 12.5741 133.934 12.2457 134.181 11.9668C134.427 11.688 134.731 11.4653 135.072 11.3138C135.412 11.1623 135.782 11.0855 136.155 11.0887C137.725 11.0887 138.673 12.1587 138.673 13.9262V14.3138H134.687V14.376C134.669 14.5826 134.696 14.7905 134.763 14.9864C134.831 15.1824 134.939 15.362 135.081 15.5138C135.222 15.6656 135.394 15.7863 135.585 15.868C135.776 15.9498 135.982 15.9908 136.19 15.9885C136.457 16.0204 136.727 15.9726 136.966 15.8511C137.205 15.7296 137.402 15.5399 137.533 15.3061L138.605 15.3062ZM134.687 13.4922H137.538C137.552 13.3033 137.526 13.1136 137.462 12.9352C137.398 12.7568 137.298 12.5937 137.167 12.4563C137.036 12.319 136.878 12.2105 136.703 12.1378C136.527 12.0651 136.338 12.0298 136.148 12.0341C135.956 12.0317 135.765 12.0678 135.586 12.1402C135.408 12.2126 135.246 12.3199 135.109 12.4558C134.973 12.5917 134.866 12.7534 134.793 12.9314C134.72 13.1094 134.684 13.3001 134.687 13.4922H134.687Z" fill="black"/>
<path d="M40.4172 24.053C40.4313 22.9681 40.7222 21.9043 41.2629 20.9606C41.8035 20.017 42.5764 19.2242 43.5095 18.6559C42.9167 17.8173 42.1347 17.1271 41.2255 16.6402C40.3164 16.1534 39.3052 15.8832 38.2722 15.8512C36.0687 15.6221 33.9325 17.1573 32.8096 17.1573C31.665 17.1573 29.9362 15.8739 28.0745 15.9119C26.8703 15.9504 25.6967 16.2973 24.6681 16.9187C23.6395 17.5401 22.7909 18.4149 22.2051 19.4578C19.6673 23.8103 21.5603 30.207 23.9913 33.7253C25.2076 35.448 26.629 37.3724 28.489 37.3042C30.3092 37.2294 30.9889 36.1545 33.186 36.1545C35.3626 36.1545 36.0004 37.3042 37.8981 37.2608C39.8512 37.2294 41.0817 35.5304 42.2553 33.7913C43.1292 32.5637 43.8017 31.207 44.2478 29.7714C43.1131 29.296 42.1448 28.5002 41.4636 27.4834C40.7824 26.4665 40.4185 25.2734 40.4172 24.053Z" fill="black"/>
<path d="M36.8327 13.5374C37.8976 12.271 38.4222 10.6433 38.2952 9C36.6682 9.16927 35.1654 9.93952 34.0861 11.1573C33.5584 11.7522 33.1543 12.4443 32.8968 13.194C32.6393 13.9437 32.5334 14.7364 32.5854 15.5267C33.3991 15.5349 34.2041 15.3602 34.9398 15.0157C35.6755 14.6711 36.3227 14.1656 36.8327 13.5374Z" fill="black"/>
<path d="M62.2538 33.1159H56.2809L54.8465 37.3115H52.3167L57.9741 21.789H60.6026L66.26 37.3115H63.687L62.2538 33.1159ZM56.8995 31.1799H61.6341L59.3001 24.3708H59.2347L56.8995 31.1799Z" fill="black"/>
<path d="M78.4782 31.6535C78.4782 35.1704 76.578 37.4299 73.7104 37.4299C72.984 37.4675 72.2616 37.3018 71.6259 36.9516C70.9902 36.6014 70.4669 36.081 70.1159 35.4499H70.0616V41.0554H67.7166V25.9943H69.9864V27.8767H70.0296C70.3967 27.2486 70.9289 26.7308 71.5694 26.3785C72.21 26.0262 72.935 25.8525 73.6673 25.8759C76.5669 25.8759 78.4782 28.1464 78.4782 31.6535ZM76.0678 31.6535C76.0678 29.3623 74.8725 27.8559 73.0487 27.8559C71.257 27.8559 70.0518 29.394 70.0518 31.6535C70.0518 33.9338 71.257 35.4609 73.0487 35.4609C74.8725 35.4609 76.0678 33.9655 76.0678 31.6535H76.0678Z" fill="black"/>
<path d="M91.053 31.6535C91.053 35.1704 89.1522 37.4299 86.2847 37.4299C85.5583 37.4675 84.8359 37.3018 84.2001 36.9516C83.5644 36.6014 83.0411 36.081 82.6901 35.4499H82.6358V41.0554H80.2908V25.9943H82.5607V27.8767H82.6038C82.9709 27.2486 83.5031 26.7308 84.1437 26.3785C84.7842 26.0262 85.5092 25.8525 86.2415 25.8759C89.1411 25.8759 91.053 28.1464 91.053 31.6535ZM88.642 31.6535C88.642 29.3623 87.4467 27.8559 85.6229 27.8559C83.8312 27.8559 82.626 29.394 82.626 31.6535C82.626 33.9338 83.8312 35.4609 85.6229 35.4609C87.4467 35.4609 88.642 33.9655 88.642 31.6535Z" fill="black"/>
<path d="M99.3625 32.9865C99.5362 34.5258 101.046 35.5365 103.109 35.5365C105.085 35.5365 106.507 34.5258 106.507 33.1378C106.507 31.933 105.65 31.2116 103.619 30.7172L101.588 30.2326C98.7106 29.5441 97.3748 28.2111 97.3748 26.048C97.3748 23.3698 99.7309 21.5302 103.075 21.5302C106.388 21.5302 108.658 23.3698 108.734 26.048H106.367C106.225 24.4989 104.932 23.5638 103.043 23.5638C101.154 23.5638 99.8615 24.5099 99.8615 25.8868C99.8615 26.9843 100.687 27.63 102.707 28.1244L104.433 28.5443C107.648 29.2975 108.983 30.5768 108.983 32.8473C108.983 35.7513 106.649 37.5701 102.935 37.5701C99.4598 37.5701 97.1135 35.794 96.9619 32.9864L99.3625 32.9865Z" fill="black"/>
<path d="M114.046 23.3161V25.9943H116.219V27.8339H114.046V34.0729C114.046 35.0422 114.481 35.4938 115.436 35.4938C115.694 35.4894 115.952 35.4714 116.208 35.4401V37.2687C115.778 37.3482 115.342 37.3842 114.905 37.3761C112.592 37.3761 111.69 36.5155 111.69 34.3207V27.8339H110.029V25.9943H111.69V23.3161H114.046Z" fill="black"/>
<path d="M117.476 31.6535C117.476 28.0927 119.593 25.8552 122.894 25.8552C126.207 25.8552 128.314 28.0927 128.314 31.6535C128.314 35.2241 126.218 37.4518 122.894 37.4518C119.572 37.4518 117.476 35.2241 117.476 31.6535ZM125.924 31.6535C125.924 29.2109 124.794 27.7692 122.894 27.7692C120.994 27.7692 119.864 29.2219 119.864 31.6535C119.864 34.1059 120.994 35.5366 122.894 35.5366C124.794 35.5366 125.924 34.1059 125.924 31.6535H125.924Z" fill="black"/>
<path d="M130.247 25.9943H132.484V27.9205H132.538C132.69 27.3189 133.045 26.7873 133.546 26.4149C134.046 26.0426 134.661 25.8522 135.286 25.8759C135.556 25.8749 135.826 25.904 136.09 25.9625V28.1354C135.748 28.0321 135.393 27.9847 135.036 27.995C134.695 27.9813 134.356 28.0408 134.04 28.1694C133.725 28.298 133.442 28.4927 133.21 28.7401C132.977 28.9874 132.802 29.2816 132.696 29.6025C132.589 29.9233 132.554 30.2632 132.592 30.5988V37.3114H130.247L130.247 25.9943Z" fill="black"/>
<path d="M146.902 33.9875C146.586 36.0419 144.567 37.4518 141.983 37.4518C138.659 37.4518 136.596 35.246 136.596 31.7072C136.596 28.1574 138.67 25.8552 141.884 25.8552C145.045 25.8552 147.032 28.006 147.032 31.4374V32.2333H138.963V32.3737C138.926 32.7902 138.979 33.2098 139.118 33.6046C139.257 33.9994 139.479 34.3604 139.77 34.6636C140.06 34.9668 140.413 35.2052 140.804 35.3631C141.195 35.521 141.615 35.5947 142.037 35.5793C142.591 35.6307 143.147 35.5036 143.622 35.2168C144.098 34.93 144.467 34.4988 144.675 33.9875L146.902 33.9875ZM138.975 30.6098H144.686C144.707 30.2353 144.65 29.8605 144.518 29.509C144.386 29.1575 144.182 28.8368 143.919 28.5671C143.655 28.2974 143.339 28.0845 142.989 27.9417C142.639 27.799 142.263 27.7294 141.884 27.7375C141.502 27.7352 141.124 27.8079 140.77 27.9513C140.417 28.0948 140.096 28.3061 139.825 28.5731C139.555 28.8402 139.34 29.1576 139.194 29.5072C139.048 29.8568 138.974 30.2315 138.975 30.6098V30.6098Z" fill="black"/>
</svg>
