<svg width="30" height="30" viewBox="0 0 30 30" fill="none" xmlns="http://www.w3.org/2000/svg">
<path d="M18.4753 14.9027C18.4537 14.753 18.3855 14.6139 18.2804 14.5053L12.5205 8.50523L12.5203 8.50523C12.3924 8.35372 12.2077 8.26165 12.0097 8.2506C11.8118 8.23972 11.6181 8.31104 11.4743 8.44748C11.3305 8.58408 11.2493 8.77376 11.25 8.97213C11.2507 9.17035 11.3332 9.35953 11.4778 9.49512L16.7655 15.0002L11.4778 20.5052L11.4778 20.5053C11.3332 20.6408 11.2506 20.8301 11.25 21.0283C11.2493 21.2265 11.3305 21.4164 11.4743 21.553C11.6181 21.6894 11.8118 21.7607 12.0097 21.7497C12.2077 21.7388 12.3924 21.6467 12.5203 21.4952L18.2802 15.4952L18.2804 15.4952C18.4319 15.3377 18.5037 15.1197 18.4753 14.9028L18.4753 14.9027Z" fill="#E53429"/>
</svg>
