<svg width="17" height="16" viewBox="0 0 17 16" fill="none" xmlns="http://www.w3.org/2000/svg">
<path d="M8.55197 9.85347C8.6318 9.84196 8.70599 9.80562 8.76394 9.74955L11.964 6.67758L11.964 6.67749C12.0448 6.60928 12.0939 6.5108 12.0998 6.40517C12.1056 6.29964 12.0675 6.19634 11.9948 6.11964C11.9219 6.04295 11.8207 5.99965 11.7149 6C11.6092 6.00036 11.5083 6.04438 11.436 6.12152L8.5 8.9416L5.56399 6.12151L5.5639 6.12151C5.49167 6.04436 5.39069 6.00035 5.28497 5.99999C5.17926 5.99963 5.07801 6.04294 5.00516 6.11963C4.93239 6.19633 4.89435 6.29963 4.90025 6.40516C4.90605 6.51078 4.95516 6.60927 5.03596 6.67748L8.23597 9.74946L8.23597 9.74954C8.31999 9.83035 8.43624 9.86865 8.55195 9.85347L8.55197 9.85347Z" fill="#555555"/>
</svg>
