<svg width="24" height="24" viewBox="0 0 24 24" fill="none" xmlns="http://www.w3.org/2000/svg">
<path d="M17.0529 7.05166V16.2361H16.0422L16.0421 7.05166C16.0421 4.8235 14.2294 3.01074 11.9998 3.01074C9.77045 3.01074 7.95787 4.8236 7.95787 7.05166L7.95974 17.1581C7.95974 18.8338 9.31348 20.1895 10.9893 20.1895C12.665 20.1895 14.0208 18.8336 14.0208 17.1581L14.0209 10.0842C14.0209 8.96566 13.1259 8.05534 12.0069 8.05534C10.8888 8.05534 9.97886 8.96566 9.97886 10.0842V16.2361H8.96836L8.96822 10.0842C8.96822 8.4081 10.3311 7.04473 12.0067 7.04473C13.6832 7.04473 15.0313 8.40814 15.0313 10.0842V17.1581C15.0313 19.3902 13.2215 21.2003 10.9894 21.2003C8.7572 21.2003 6.94914 19.3903 6.94914 17.1581L6.94727 7.05166C6.94753 4.26635 9.21399 2 11.9999 2C14.7859 2 17.0526 4.26635 17.0526 7.05166H17.0529Z" fill="#555555"/>
</svg>
