<svg width="24" height="24" viewBox="0 0 24 24" fill="none" xmlns="http://www.w3.org/2000/svg">
<path d="M18.683 3H10.0458C9.55769 3.03123 9.10173 3.25449 8.77786 3.62119C8.45416 3.98807 8.28894 4.46812 8.31843 4.9565V8.97703C8.31843 9.21552 8.5118 9.40889 8.75029 9.40889C8.98877 9.40889 9.18215 9.21552 9.18215 8.97703V4.9565C9.15516 4.69757 9.23035 4.43866 9.39171 4.23448C9.55308 4.03031 9.7879 3.89728 10.0459 3.86373H18.683C18.941 3.89728 19.1758 4.03031 19.3372 4.23448C19.4986 4.43864 19.5737 4.69757 19.5468 4.9565V19.0435C19.5737 19.3024 19.4986 19.5613 19.3372 19.7655C19.1758 19.9697 18.941 20.1027 18.683 20.1363H10.0459C9.78791 20.1027 9.55309 19.9697 9.39171 19.7655C9.23035 19.5614 9.15515 19.3024 9.18215 19.0435V15.023C9.18215 14.7845 8.98877 14.5911 8.75029 14.5911C8.5118 14.5911 8.31843 14.7845 8.31843 15.023V19.0435C8.28893 19.5319 8.45416 20.0119 8.77786 20.3788C9.10175 20.7455 9.55772 20.9688 10.0458 21H18.683C19.1712 20.9688 19.6271 20.7455 19.951 20.3788C20.2747 20.0119 20.4399 19.5319 20.4104 19.0435V4.9565C20.4399 4.46815 20.2747 3.98809 19.951 3.62119C19.6271 3.25449 19.1711 3.03124 18.683 3Z" fill="#555555"/>
<path d="M11.4668 15.5803C11.385 15.6613 11.3389 15.7717 11.3389 15.8868C11.3389 16.0019 11.385 16.1124 11.4668 16.1934C11.5477 16.2751 11.6582 16.3212 11.7733 16.3212C11.8884 16.3212 11.9989 16.2751 12.0798 16.1934L15.9666 12.3067C16.0483 12.2257 16.0944 12.1152 16.0944 12.0001C16.0944 11.885 16.0483 11.7745 15.9666 11.6936L12.0798 7.80685C11.9106 7.63738 11.636 7.63738 11.4667 7.80685C11.2973 7.97612 11.2973 8.25066 11.4667 8.41994L14.6193 11.5683H4.43186C4.19337 11.5683 4 11.7616 4 12.0001C4 12.2386 4.19337 12.432 4.43186 12.432H14.6193L11.4668 15.5803Z" fill="#555555"/>
</svg>
