<svg width="168" height="50" viewBox="0 0 168 50" fill="none" xmlns="http://www.w3.org/2000/svg">
<path d="M161.778 0H6.22222C2.78578 0 0 2.79822 0 6.25V43.75C0 47.2018 2.78578 50 6.22222 50H161.778C165.214 50 168 47.2018 168 43.75V6.25C168 2.79822 165.214 0 161.778 0Z" fill="white"/>
<path d="M161.778 1C163.164 1 164.493 1.55312 165.474 2.53769C166.454 3.52226 167.004 4.85761 167.004 6.25V43.75C167.004 45.1424 166.454 46.4777 165.474 47.4623C164.493 48.4469 163.164 49 161.778 49H6.22222C4.83602 49 3.5066 48.4469 2.52641 47.4623C1.54622 46.4777 0.995556 45.1424 0.995556 43.75V6.25C0.995556 4.85761 1.54622 3.52226 2.52641 2.53769C3.5066 1.55312 4.83602 1 6.22222 1H161.778ZM161.778 0H6.22222C4.57199 0 2.98934 0.65848 1.82245 1.83058C0.655554 3.00269 0 4.5924 0 6.25V43.75C0 45.4076 0.655554 46.9973 1.82245 48.1694C2.98934 49.3415 4.57199 50 6.22222 50H161.778C163.428 50 165.011 49.3415 166.178 48.1694C167.344 46.9973 168 45.4076 168 43.75V6.25C168 4.5924 167.344 3.00269 166.178 1.83058C165.011 0.65848 163.428 0 161.778 0Z" fill="black"/>
<path d="M59.0115 12.8C59.0319 13.2584 58.9597 13.7162 58.7993 14.1459C58.6389 14.5755 58.3936 14.9681 58.0781 15.3C57.7246 15.6666 57.298 15.9541 56.8262 16.1437C56.3544 16.3332 55.8481 16.4206 55.3403 16.4C54.8297 16.4114 54.3221 16.3175 53.8491 16.124C53.376 15.9305 52.9475 15.6415 52.5901 15.275C51.865 14.53 51.459 13.5294 51.459 12.4875C51.459 11.4456 51.865 10.445 52.5901 9.7C53.1445 9.15586 53.8467 8.78842 54.6083 8.64386C55.37 8.4993 56.1572 8.58407 56.871 8.8875C57.3198 9.07279 57.72 9.35936 58.0408 9.725L57.3812 10.3875C57.1341 10.0885 56.821 9.85142 56.4667 9.69519C56.1124 9.53896 55.7268 9.46785 55.3403 9.4875C54.8526 9.49089 54.373 9.61424 53.9436 9.84677C53.5143 10.0793 53.1481 10.4139 52.8772 10.8214C52.6063 11.2289 52.4389 11.6968 52.3896 12.1843C52.3403 12.6718 52.4107 13.164 52.5945 13.6178C52.7783 14.0717 53.07 14.4734 53.444 14.7879C53.8181 15.1024 54.2631 15.3201 54.7403 15.4219C55.2175 15.5238 55.7122 15.5066 56.1812 15.3721C56.6503 15.2375 57.0794 14.9896 57.431 14.65C57.8111 14.2314 58.0315 13.6912 58.0532 13.125H55.3403V12.225H58.9617C58.99 12.4155 59.0066 12.6075 59.0115 12.8Z" fill="black" stroke="black" stroke-width="0.411304" stroke-miterlimit="10"/>
<path d="M64.711 9.675H61.351V12.05H64.4124V12.95H61.351V15.325H64.711V16.25H60.3804V8.75H64.711V9.675Z" fill="black" stroke="black" stroke-width="0.411304" stroke-miterlimit="10"/>
<path d="M68.7928 16.25H67.8346V9.675H65.7439V8.75H70.9332V9.675H68.7928V16.25Z" fill="black" stroke="black" stroke-width="0.411304" stroke-miterlimit="10"/>
<path d="M74.592 16.25V8.75H75.5503V16.25H74.592Z" fill="black" stroke="black" stroke-width="0.411304" stroke-miterlimit="10"/>
<path d="M79.8062 16.25H78.848V9.675H76.7573V8.75H81.8844V9.675H79.8062V16.25Z" fill="black" stroke="black" stroke-width="0.411304" stroke-miterlimit="10"/>
<path d="M91.6037 15.275C91.2443 15.6363 90.8175 15.923 90.3477 16.1185C89.878 16.3141 89.3745 16.4147 88.8659 16.4147C88.3574 16.4147 87.8539 16.3141 87.3841 16.1185C86.9144 15.923 86.4876 15.6363 86.1282 15.275C85.4247 14.5238 85.033 13.5313 85.033 12.5C85.033 11.4687 85.4247 10.4762 86.1282 9.725C86.4798 9.3535 86.9052 9.06029 87.3769 8.86434C87.8485 8.6684 88.3558 8.57408 88.8659 8.5875C89.3754 8.5794 89.8811 8.67615 90.352 8.87177C90.8228 9.0674 91.2488 9.35777 91.6037 9.725C91.9615 10.0906 92.2428 10.5245 92.4309 11.0012C92.619 11.4778 92.7101 11.9874 92.6988 12.5C92.7151 13.0132 92.6264 13.5243 92.438 14.0017C92.2496 14.479 91.9657 14.9124 91.6037 15.275ZM86.8375 14.65C87.1026 14.9198 87.4184 15.1341 87.7666 15.2803C88.1148 15.4266 88.4885 15.5019 88.8659 15.5019C89.2434 15.5019 89.617 15.4266 89.9652 15.2803C90.3135 15.1341 90.6293 14.9198 90.8944 14.65C91.4313 14.0639 91.7294 13.2965 91.7294 12.5C91.7294 11.7035 91.4313 10.9361 90.8944 10.35C90.6293 10.0801 90.3135 9.86588 89.9652 9.71964C89.617 9.5734 89.2434 9.49809 88.8659 9.49809C88.4885 9.49809 88.1148 9.5734 87.7666 9.71964C87.4184 9.86588 87.1026 10.0801 86.8375 10.35C86.3005 10.9361 86.0025 11.7035 86.0025 12.5C86.0025 13.2965 86.3005 14.0639 86.8375 14.65Z" fill="black" stroke="black" stroke-width="0.411304" stroke-miterlimit="10"/>
<path d="M94.0552 16.25V8.75H95.2125L98.8463 14.5875V13.1375V8.75H99.8045V16.25H98.809L95.0134 10.1375V11.575V16.25H94.0552Z" fill="black" stroke="black" stroke-width="0.411304" stroke-miterlimit="10"/>
<path d="M84.7963 27.1875C83.7478 27.19 82.7236 27.5047 81.8532 28.0919C80.9828 28.679 80.3052 29.5123 79.9063 30.4863C79.5073 31.4602 79.4048 32.5311 79.6118 33.5636C79.8187 34.5961 80.3259 35.5437 81.069 36.2867C81.8121 37.0296 82.7579 37.5345 83.7868 37.7376C84.8156 37.9406 85.8813 37.8327 86.849 37.4273C87.8168 37.022 88.6431 36.3376 89.2236 35.4605C89.8041 34.5834 90.1126 33.5532 90.1101 32.5C90.1203 31.7974 89.9896 31.1 89.7258 30.4492C89.462 29.7984 89.0706 29.2076 88.5748 28.7119C88.079 28.2162 87.489 27.8258 86.8398 27.5639C86.1907 27.302 85.4958 27.174 84.7963 27.1875ZM84.7963 35.725C84.1537 35.7701 83.5124 35.62 82.9558 35.2942C82.3992 34.9684 81.953 34.4819 81.6753 33.898C81.3976 33.3142 81.3012 32.6598 81.3986 32.0202C81.496 31.3805 81.7828 30.7851 82.2216 30.3113C82.6603 29.8375 83.2309 29.5072 83.859 29.3635C84.4871 29.2197 85.1438 29.269 85.7436 29.5051C86.3434 29.7412 86.8587 30.153 87.2224 30.6871C87.5861 31.2212 87.7814 31.8529 87.783 32.5C87.8031 32.91 87.7412 33.3199 87.601 33.7055C87.4608 34.0911 87.2452 34.4446 86.9668 34.7452C86.6885 35.0458 86.353 35.2873 85.9802 35.4556C85.6075 35.6239 85.2049 35.7155 84.7963 35.725ZM73.1981 27.1875C72.1496 27.19 71.1254 27.5047 70.255 28.0919C69.3845 28.679 68.707 29.5123 68.308 30.4863C67.9091 31.4602 67.8066 32.5311 68.0136 33.5636C68.2205 34.5961 68.7276 35.5437 69.4708 36.2867C70.2139 37.0296 71.1597 37.5345 72.1886 37.7376C73.2174 37.9406 74.2831 37.8327 75.2508 37.4273C76.2186 37.022 77.0449 36.3376 77.6254 35.4605C78.2059 34.5834 78.5144 33.5532 78.5119 32.5C78.522 31.7974 78.3913 31.1 78.1276 30.4492C77.8638 29.7984 77.4724 29.2076 76.9766 28.7119C76.4808 28.2162 75.8907 27.8258 75.2416 27.5639C74.5925 27.302 73.8975 27.174 73.1981 27.1875ZM73.1981 35.725C72.5555 35.7701 71.9142 35.62 71.3575 35.2942C70.8009 34.9684 70.3548 34.4819 70.0771 33.898C69.7994 33.3142 69.703 32.6598 69.8004 32.0202C69.8978 31.3805 70.1845 30.7851 70.6233 30.3113C71.0621 29.8375 71.6327 29.5072 72.2608 29.3635C72.8889 29.2197 73.5455 29.269 74.1454 29.5051C74.7452 29.7412 75.2605 30.153 75.6242 30.6871C75.9879 31.2212 76.1832 31.8529 76.1848 32.5C76.2048 32.91 76.1429 33.3199 76.0028 33.7055C75.8626 34.0911 75.647 34.4446 75.3686 34.7452C75.0903 35.0458 74.7548 35.2873 74.382 35.4556C74.0092 35.6239 73.6067 35.7155 73.1981 35.725ZM59.4097 28.825V31.075H64.7857C64.7014 32.1348 64.2628 33.1347 63.5412 33.9125C63.002 34.4644 62.3534 34.8964 61.6374 35.1806C60.9214 35.4649 60.154 35.595 59.3848 35.5625C57.8006 35.5625 56.2812 34.9304 55.161 33.8051C54.0408 32.6799 53.4115 31.1538 53.4115 29.5625C53.4115 27.9712 54.0408 26.4451 55.161 25.3199C56.2812 24.1946 57.8006 23.5625 59.3848 23.5625C60.9036 23.5398 62.3701 24.1192 63.4666 25.175L65.047 23.5875C64.3053 22.8506 63.4247 22.2699 62.4566 21.8792C61.4886 21.4886 60.4528 21.2959 59.4097 21.3125C58.3034 21.2693 57.1997 21.4508 56.1649 21.8462C55.1301 22.2416 54.1855 22.8428 53.3875 23.6138C52.5896 24.3847 51.9548 25.3095 51.5211 26.3327C51.0875 27.356 50.864 28.4566 50.864 29.5687C50.864 30.6808 51.0875 31.7815 51.5211 32.8047C51.9548 33.828 52.5896 34.7528 53.3875 35.5237C54.1855 36.2947 55.1301 36.8959 56.1649 37.2913C57.1997 37.6867 58.3034 37.8682 59.4097 37.825C60.4742 37.8677 61.5357 37.6837 62.5244 37.2852C63.5131 36.8866 64.4067 36.2825 65.1466 35.5125C66.4534 34.0705 67.1497 32.174 67.0879 30.225C67.0924 29.7559 67.0549 29.2874 66.9759 28.825H59.4097ZM115.795 30.575C115.471 29.6159 114.864 28.7785 114.055 28.1736C113.246 27.5686 112.273 27.2248 111.266 27.1875C110.585 27.1862 109.911 27.3251 109.286 27.5957C108.661 27.8663 108.098 28.2628 107.631 28.7607C107.165 29.2586 106.805 29.8473 106.574 30.4905C106.343 31.1336 106.245 31.8176 106.288 32.5C106.277 33.6411 106.634 34.755 107.306 35.6753C107.978 36.5957 108.928 37.2731 110.014 37.6064C111.101 37.9397 112.265 37.911 113.334 37.5246C114.403 37.1382 115.319 36.4148 115.945 35.4625L114.14 34.2125C113.871 34.6628 113.49 35.0347 113.034 35.2913C112.577 35.5478 112.062 35.6801 111.539 35.675C111 35.6974 110.467 35.5553 110.009 35.2675C109.552 34.9797 109.191 34.5597 108.976 34.0625L116.057 31.125L115.795 30.575ZM108.578 32.35C108.552 31.9617 108.605 31.5723 108.731 31.2045C108.858 30.8367 109.056 30.498 109.314 30.2082C109.573 29.9183 109.886 29.6832 110.236 29.5165C110.586 29.3498 110.966 29.255 111.353 29.2375C111.754 29.2129 112.153 29.3077 112.501 29.5101C112.848 29.7124 113.129 30.0133 113.307 30.375L108.578 32.35ZM102.828 37.5H105.155V21.875H102.828V37.5ZM99.0203 28.375H98.9332C98.5856 27.9773 98.1566 27.6598 97.6755 27.444C97.1943 27.2283 96.6725 27.1195 96.1457 27.125C94.7857 27.1912 93.5033 27.7805 92.5641 28.7707C91.625 29.7609 91.1011 31.0761 91.1011 32.4437C91.1011 33.8114 91.625 35.1266 92.5641 36.1168C93.5033 37.107 94.7857 37.6963 96.1457 37.7625C96.6733 37.7731 97.1967 37.6666 97.6786 37.4505C98.1604 37.2344 98.5889 36.9141 98.9332 36.5125H99.0203V37.275C99.0203 39.3125 97.9377 40.4 96.1955 40.4C95.6135 40.3872 95.0484 40.2009 94.572 39.8648C94.0956 39.5287 93.7294 39.058 93.5199 38.5125L91.5039 39.35C91.8766 40.2903 92.5247 41.0949 93.3624 41.6573C94.2 42.2197 95.188 42.5136 96.1955 42.5C98.9208 42.5 101.173 40.8875 101.173 36.9625V27.5H99.0203V28.375ZM96.3448 35.725C95.5294 35.6739 94.7641 35.3126 94.2047 34.7146C93.6453 34.1166 93.3339 33.3268 93.3339 32.5062C93.3339 31.6857 93.6453 30.8959 94.2047 30.2979C94.7641 29.6999 95.5294 29.3386 96.3448 29.2875C96.7433 29.3048 97.1343 29.4024 97.4945 29.5745C97.8547 29.7467 98.1767 29.9899 98.4414 30.2896C98.7061 30.5893 98.9081 30.9395 99.0354 31.3192C99.1626 31.6989 99.2125 32.1005 99.1821 32.5C99.2161 32.9009 99.1687 33.3045 99.043 33.6864C98.9172 34.0684 98.7156 34.4208 98.4504 34.7222C98.1851 35.0237 97.8618 35.268 97.4999 35.4404C97.138 35.6127 96.745 35.7095 96.3448 35.725ZM126.697 21.875H121.122V37.5H123.449V31.575H126.697C127.36 31.6229 128.026 31.533 128.653 31.3109C129.28 31.0889 129.855 30.7394 130.342 30.2844C130.829 29.8293 131.217 29.2784 131.482 28.666C131.748 28.0537 131.885 27.3929 131.885 26.725C131.885 26.0571 131.748 25.3963 131.482 24.784C131.217 24.1716 130.829 23.6207 130.342 23.1656C129.855 22.7106 129.28 22.3611 128.653 22.1391C128.026 21.917 127.36 21.8271 126.697 21.875ZM126.697 29.375H123.449V24.05H126.747C127.096 24.05 127.443 24.1192 127.766 24.2536C128.089 24.3881 128.382 24.5851 128.63 24.8335C128.877 25.0819 129.073 25.3768 129.207 25.7013C129.341 26.0259 129.41 26.3737 129.41 26.725C129.41 27.0763 129.341 27.4241 129.207 27.7487C129.073 28.0732 128.877 28.3681 128.63 28.6165C128.382 28.8649 128.089 29.0619 127.766 29.1964C127.443 29.3308 127.096 29.4 126.747 29.4L126.697 29.375ZM141.058 27.1375C140.21 27.085 139.366 27.2832 138.63 27.7075C137.893 28.1318 137.296 28.7637 136.914 29.525L138.967 30.3875C139.174 30.0118 139.486 29.7044 139.863 29.5025C140.241 29.3007 140.669 29.213 141.095 29.25C141.39 29.2153 141.69 29.2401 141.976 29.3229C142.261 29.4057 142.528 29.5448 142.759 29.7321C142.991 29.9195 143.183 30.1513 143.325 30.414C143.466 30.6768 143.555 30.9652 143.584 31.2625V31.4125C142.836 31.0174 142.003 30.8115 141.157 30.8125C138.942 30.8125 136.677 32.0625 136.677 34.3375C136.699 34.8211 136.818 35.2953 137.026 35.7319C137.233 36.1686 137.527 36.5589 137.888 36.8795C138.249 37.2002 138.67 37.4447 139.127 37.5985C139.584 37.7523 140.067 37.8123 140.547 37.775C141.131 37.8074 141.713 37.6833 142.234 37.4153C142.754 37.1473 143.195 36.7452 143.509 36.25H143.584V37.5H145.824V31.4875C145.824 28.75 143.758 27.1625 141.107 27.1625L141.058 27.1375ZM140.771 35.7C140.012 35.7 138.955 35.3125 138.955 34.375C138.955 33.125 140.274 32.7 141.443 32.7C142.183 32.6817 142.913 32.863 143.559 33.225C143.481 33.9038 143.16 34.5312 142.657 34.9909C142.154 35.4506 141.501 35.7114 140.821 35.725L140.771 35.7ZM153.987 27.5L151.324 34.275H151.25L148.487 27.5H145.998L150.142 36.975L147.778 42.2375H150.204L156.576 27.5H153.987ZM133.081 37.5H135.395V21.875H133.081V37.5Z" fill="black"/>
<path d="M12.9919 9.425C12.5818 9.91203 12.3725 10.5381 12.407 11.175V38.825C12.3646 39.463 12.5748 40.0919 12.9919 40.575L13.079 40.675L28.4976 25.1875V24.8125L13.079 9.3375L12.9919 9.425Z" fill="url(#paint0_linear_11_515)"/>
<path d="M33.6 30.35L28.4978 25.1875V24.8125L33.6 19.65L33.712 19.725L39.8222 23.2C41.5645 24.1875 41.5645 25.8125 39.8222 26.8125L33.7369 30.2875L33.6 30.35Z" fill="url(#paint1_linear_11_515)"/>
<path d="M33.7495 30.275L28.498 25L12.9922 40.575C13.3438 40.8894 13.7939 41.0703 14.2644 41.0863C14.735 41.1022 15.1962 40.9523 15.5682 40.6625L33.7495 30.275Z" fill="url(#paint2_linear_11_515)"/>
<path d="M33.7495 19.725L15.5682 9.35C15.1986 9.05614 14.7377 8.90257 14.2666 8.91629C13.7954 8.93001 13.3442 9.11013 12.9922 9.425L28.498 25L33.7495 19.725Z" fill="url(#paint3_linear_11_515)"/>
<path opacity="0.2" d="M33.6002 30.1625L15.5682 40.475C15.2097 40.7468 14.7728 40.8938 14.3237 40.8938C13.8746 40.8938 13.4378 40.7468 13.0793 40.475L12.9922 40.5625L13.0793 40.6625C13.4378 40.9343 13.8746 41.0813 14.3237 41.0813C14.7728 41.0813 15.2097 40.9343 15.5682 40.6625L33.7495 30.275L33.6002 30.1625Z" fill="black"/>
<path opacity="0.12" d="M12.992 40.4C12.5922 39.9042 12.3963 39.2737 12.4444 38.6375V38.825C12.4021 39.463 12.6123 40.0919 13.0293 40.575L13.1164 40.4875L12.992 40.4Z" fill="black"/>
<path opacity="0.12" d="M39.8223 26.625L33.6001 30.1625L33.7121 30.275L39.8223 26.8C40.183 26.6468 40.4959 26.3988 40.728 26.082C40.9602 25.7652 41.103 25.3914 41.1414 25C41.0636 25.3557 40.9037 25.6881 40.6746 25.9703C40.4455 26.2526 40.1535 26.4768 39.8223 26.625Z" fill="black"/>
<path opacity="0.25" d="M15.5681 9.525L39.8223 23.375C40.1536 23.5232 40.4455 23.7474 40.6746 24.0297C40.9037 24.3119 41.0636 24.6443 41.1414 25C41.103 24.6086 40.9602 24.2348 40.728 23.918C40.4959 23.6012 40.183 23.3532 39.8223 23.2L15.5681 9.35C13.8383 8.35 12.4072 9.175 12.4072 11.175V11.3625C12.4446 9.3625 13.8383 8.5375 15.5681 9.525Z" fill="white"/>
<defs>
<linearGradient id="paint0_linear_11_515" x1="27.1287" y1="10.8875" x2="6.15395" y2="31.7691" gradientUnits="userSpaceOnUse">
<stop stop-color="#00A0FF"/>
<stop offset="0.01" stop-color="#00A1FF"/>
<stop offset="0.26" stop-color="#00BEFF"/>
<stop offset="0.51" stop-color="#00D2FF"/>
<stop offset="0.76" stop-color="#00DFFF"/>
<stop offset="1" stop-color="#00E3FF"/>
</linearGradient>
<linearGradient id="paint1_linear_11_515" x1="42.0996" y1="25" x2="11.9965" y2="25" gradientUnits="userSpaceOnUse">
<stop stop-color="#FFE000"/>
<stop offset="0.41" stop-color="#FFBD00"/>
<stop offset="0.78" stop-color="#FFA500"/>
<stop offset="1" stop-color="#FF9C00"/>
</linearGradient>
<linearGradient id="paint2_linear_11_515" x1="30.8997" y1="27.875" x2="2.45009" y2="56.1858" gradientUnits="userSpaceOnUse">
<stop stop-color="#FF3A44"/>
<stop offset="1" stop-color="#C31162"/>
</linearGradient>
<linearGradient id="paint3_linear_11_515" x1="9.08463" y1="0.225" x2="21.7845" y2="12.8684" gradientUnits="userSpaceOnUse">
<stop stop-color="#32A071"/>
<stop offset="0.07" stop-color="#2DA771"/>
<stop offset="0.48" stop-color="#15CF74"/>
<stop offset="0.8" stop-color="#06E775"/>
<stop offset="1" stop-color="#00F076"/>
</linearGradient>
</defs>
</svg>
