<svg width="24" height="24" viewBox="0 0 24 24" fill="none" xmlns="http://www.w3.org/2000/svg">
<path d="M11.5382 4.30737C10.6814 4.30737 9.85962 4.64782 9.25373 5.25373C8.64783 5.85963 8.30737 6.68142 8.30737 7.53829C8.30737 8.39516 8.64782 9.21696 9.25373 9.82285C9.85962 10.4288 10.6814 10.7692 11.5383 10.7692C12.3952 10.7692 13.217 10.4288 13.8228 9.82285C14.4287 9.21696 14.7691 8.39516 14.7692 7.53843C14.7683 6.68183 14.4276 5.86055 13.8218 5.25483C13.216 4.64906 12.3948 4.30837 11.5382 4.30741L11.5382 4.30737ZM11.5382 10.1867C10.8358 10.1867 10.1622 9.90772 9.66543 9.41098C9.16884 8.91425 8.88972 8.24057 8.88985 7.53812C8.88985 6.83581 9.16883 6.16213 9.66557 5.6654C10.1623 5.1688 10.836 4.88968 11.5384 4.88968C12.2407 4.88982 12.9144 5.16879 13.4111 5.66553C13.9077 6.16227 14.1869 6.83595 14.1867 7.53826C14.1861 8.24057 13.9067 8.9137 13.4102 9.41019C12.9136 9.90679 12.2405 10.186 11.5382 10.1867Z" fill="#E53429"/>
<path d="M11.5381 1.00013C9.80477 1.00214 8.14287 1.69161 6.91705 2.91732C5.69123 4.14304 5.00202 5.80497 5 7.53835C5 11.0468 11.0497 18.9641 11.3072 19.2997L11.5381 19.6003L11.769 19.2997C12.0267 18.9642 18.0762 11.0472 18.0762 7.53835L18.0763 7.53822C18.0743 5.8049 17.3848 4.14301 16.1591 2.91719C14.9334 1.69137 13.2715 1.00202 11.5381 1L11.5381 1.00013ZM11.5381 18.6381C10.4147 17.1319 5.58231 10.4808 5.58231 7.53842C5.58231 5.95874 6.20977 4.44386 7.32673 3.32711C8.44369 2.21015 9.95857 1.58268 11.538 1.58268C13.1175 1.58268 14.6325 2.21015 15.7494 3.32711C16.8663 4.44393 17.4938 5.95881 17.4938 7.53842C17.4938 10.4802 12.6612 17.1316 11.538 18.6381H11.5381Z" fill="#E53429"/>
</svg>
