<svg width="24" height="24" viewBox="0 0 24 24" fill="none" xmlns="http://www.w3.org/2000/svg">
<path d="M21.9133 21.9133L21.9133 21.9133C22.0956 21.731 22.0956 21.4357 21.9133 21.2534L15.8614 15.2014C17.1145 13.7937 17.8834 11.9456 17.8834 9.91664C17.8833 5.52383 14.3095 1.95 9.91668 1.95C5.52383 1.95 1.95 5.52383 1.95 9.91668C1.95 14.3095 5.52383 17.8834 9.91668 17.8834C11.9456 17.8834 13.7937 17.1145 15.2015 15.8614L21.2534 21.9133C21.3445 22.0044 21.464 22.05 21.5834 22.05C21.7027 22.05 21.8222 22.0044 21.9133 21.9133ZM9.91668 16.95C6.03886 16.95 2.88336 13.7949 2.88336 9.91668C2.88336 6.03848 6.03886 2.88332 9.91668 2.88332C13.7945 2.88332 16.95 6.03844 16.95 9.91668C16.95 13.7949 13.7945 16.95 9.91668 16.95Z" fill="#555555" stroke="#555555" stroke-width="0.1"/>
</svg>
