<svg width="20" height="20" viewBox="0 0 20 20" fill="none" xmlns="http://www.w3.org/2000/svg">
<path d="M9.99998 3.02856C6.16226 3.02856 3.03998 6.15085 3.03998 9.98856C3.03998 13.8263 6.16226 16.9486 9.99998 16.9486C13.8377 16.9486 16.96 13.8263 16.96 9.98856C16.96 6.15085 13.8377 3.02856 9.99998 3.02856ZM9.99998 16.4686C6.42684 16.4686 3.51998 13.5617 3.51998 9.98856C3.51998 6.41542 6.42684 3.50856 9.99998 3.50856C13.5731 3.50856 16.48 6.41542 16.48 9.98856C16.48 13.5617 13.5731 16.4686 9.99998 16.4686ZM9.99998 4.76199C9.8675 4.76199 9.76002 4.86936 9.76002 5.00195V9.7488H6.08002C5.94755 9.7488 5.84007 9.85617 5.84007 9.98875C5.84007 10.1213 5.94755 10.2287 6.08002 10.2287H10C10.1325 10.2287 10.24 10.1213 10.24 9.98875V5.0019C10.24 4.86942 10.1325 4.76195 10 4.76195L9.99998 4.76199Z" fill="#E53429"/>
</svg>
