<svg width="24" height="24" viewBox="0 0 24 24" fill="none" xmlns="http://www.w3.org/2000/svg">
<path d="M15.1895 3.30206L15.1895 3.30206C14.3237 2.43633 13.1496 1.95 11.9252 1.95C10.7008 1.95 9.5267 2.43633 8.66097 3.30206L8.66096 3.30206C7.79524 4.16789 7.30876 5.34203 7.30876 6.56644L7.30876 6.5665C7.31025 7.79033 7.797 8.96363 8.66244 9.82907C9.52788 10.6945 10.7012 11.1814 11.9252 11.1827H11.9252C13.1496 11.1827 14.3237 10.6964 15.1895 9.83068C16.0552 8.96495 16.5417 7.79071 16.5417 6.56644C16.5417 5.34207 16.0552 4.16793 15.1895 3.30206ZM9.2532 3.89459C9.96194 3.18586 10.9229 2.78707 11.9252 2.78597C12.9279 2.78597 13.8896 3.18425 14.5986 3.89326C15.3076 4.60227 15.7059 5.56388 15.7059 6.56661C15.7059 7.5692 15.3076 8.53081 14.5986 9.23982C13.8896 9.94883 12.9279 10.3472 11.9252 10.3472C10.9225 10.3472 9.96088 9.94886 9.25186 9.23982C8.54285 8.53077 8.14457 7.5692 8.14457 6.56661C8.14578 5.56429 8.54443 4.60333 9.2532 3.8946L9.2532 3.89459Z" fill="#555555" stroke="#555555" stroke-width="0.1"/>
<path d="M3.73642 21.25L3.78642 21.25V21.2C3.78642 16.7122 7.43912 13.0612 11.9252 13.0612C16.4113 13.0612 20.064 16.7139 20.064 21.2V21.25H20.114H20.8501H20.9001L20.9001 21.2C20.8998 18.8198 19.9543 16.5372 18.2712 14.8544C16.5881 13.1715 14.3055 12.226 11.9252 12.2259C9.54504 12.2259 7.26246 13.1713 5.57925 14.8542C4.74316 15.6856 4.08025 16.6744 3.62896 17.7637C3.17766 18.8531 2.94693 20.021 2.95003 21.2002L2.95016 21.25L3.00003 21.25L3.73642 21.25Z" fill="#555555" stroke="#555555" stroke-width="0.1"/>
</svg>
